<?xml version="1.0" encoding="utf-8"?>
<!-- Generator: Adobe Illustrator 22.1.0, SVG Export Plug-In . SVG Version: 6.00 Build 0)  -->
<svg version="1.1" xmlns="http://www.w3.org/2000/svg" xmlns:xlink="http://www.w3.org/1999/xlink" x="0px" y="0px"
	 viewBox="0 0 801 514.3" style="enable-background:new 0 0 801 514.3;" xml:space="preserve">
<style type="text/css">
	.st0{fill:#111111;stroke:#000000;}
	.st1{fill:#D1A72A;}
	.st2{fill:none;stroke:#938F8F;}
	.st3{fill:none;stroke:#938F8F;stroke-dasharray:12.1689,12.1689;}
	.st4{fill:none;stroke:#EB5852;stroke-width:4.5;stroke-linecap:round;stroke-linejoin:round;}
	.st5{fill:none;stroke:#000000;}
	.st6{fill:#DCCCC9;stroke:#DDDDC9;}
	.st7{font-family:'Helvetica';}
	.st8{font-size:14px;}
	.st9{fill:#DCCCC9;}
	.st10{font-family:'RobotoCondensed-Regular';}
	.st11{font-size:18px;}
	.st12{fill:none;stroke:#938F8F;stroke-dasharray:7.4832,7.4832;}
</style>
<g id="Layer_1">
	<rect x="0.5" y="0.5" class="st0" width="800" height="513.3"/>
	<rect x="54.5" y="324.1" class="st1" width="14" height="156.4"/>
	<g>
		<g>
			<line class="st2" x1="465.4" y1="131.6" x2="471.4" y2="131.6"/>
			<line class="st3" x1="483.6" y1="131.6" x2="574.8" y2="131.6"/>
			<line class="st2" x1="580.9" y1="131.6" x2="586.9" y2="131.6"/>
		</g>
	</g>
	<rect x="112.8" y="287.3" class="st1" width="14" height="193.2"/>
	<rect x="171.2" y="259.7" class="st1" width="14" height="220.8"/>
	<rect x="229.5" y="347.1" class="st1" width="14" height="133.4"/>
	<rect x="287.8" y="360.9" class="st1" width="14" height="119.6"/>
	<rect x="346.2" y="314.9" class="st1" width="14" height="165.6"/>
	<rect x="404.5" y="374.7" class="st1" width="14" height="105.8"/>
	<rect x="462.8" y="264.3" class="st1" width="14" height="216.2"/>
	<rect x="521.2" y="245.9" class="st1" width="14" height="234.6"/>
	<rect x="579.5" y="172.3" class="st1" width="14" height="308.2"/>
	<rect x="637.8" y="144.7" class="st1" width="14" height="335.8"/>
	<rect x="696.2" y="172.3" class="st1" width="14" height="308.2"/>
	<rect x="754.5" y="213.7" class="st1" width="14" height="266.8"/>
	<path class="st4" d="M760.5,107.9l-58.3,64.4L643.8,43.5l-58.3,69l-58.3,41.4l-58.3,87.4l-58.3,23l-58.3-27.6l-58.3-23l-58.3,9.2
		l-58.3-161l-58.3,110.4L60.5,75.7"/>
	<path class="st2" d="M40.5,481H41V21h-0.5"/>
	<line class="st5" x1="40.5" y1="481" x2="40.5" y2="481"/>
	<text transform="matrix(1 0 0 1 17.7139 485.48)" class="st6 st7 st8">0</text>
	<line class="st5" x1="40.5" y1="389" x2="40.5" y2="389"/>
	<text transform="matrix(1 0 0 1 12.9277 393.48)" class="st6 st7 st8">20</text>
	<line class="st5" x1="40.5" y1="297" x2="40.5" y2="297"/>
	<text transform="matrix(1 0 0 1 12.9277 301.48)" class="st6 st7 st8">40</text>
	<line class="st5" x1="40.5" y1="205" x2="40.5" y2="205"/>
	<text transform="matrix(1 0 0 1 12.9277 209.48)" class="st6 st7 st8">60</text>
	<line class="st5" x1="40.5" y1="113" x2="40.5" y2="113"/>
	<text transform="matrix(1 0 0 1 12.9277 117.48)" class="st6 st7 st8">80</text>
	<line class="st5" x1="40.5" y1="21" x2="40.5" y2="21"/>
	<text transform="matrix(1 0 0 1 9.1416 25.48)" class="st6 st7 st8">100</text>
	<path class="st2" d="M41.5,480.5v0.5h744v-0.5"/>
	<line class="st5" x1="61" y1="480.5" x2="61" y2="480.5"/>
	<text transform="matrix(1 0 0 1 45.4277 504.44)" class="st6 st7 st8">2005</text>
	<line class="st5" x1="119.3" y1="480.5" x2="119.3" y2="480.5"/>
	<text transform="matrix(1 0 0 1 103.7611 504.44)" class="st6 st7 st8">2006</text>
	<line class="st5" x1="177.7" y1="480.5" x2="177.7" y2="480.5"/>
	<text transform="matrix(1 0 0 1 162.0944 504.44)" class="st6 st7 st8">2007</text>
	<line class="st5" x1="236" y1="480.5" x2="236" y2="480.5"/>
	<text transform="matrix(1 0 0 1 220.4277 504.44)" class="st6 st7 st8">2008</text>
	<line class="st5" x1="294.3" y1="480.5" x2="294.3" y2="480.5"/>
	<text transform="matrix(1 0 0 1 278.761 504.44)" class="st6 st7 st8">2009</text>
	<line class="st5" x1="352.7" y1="480.5" x2="352.7" y2="480.5"/>
	<text transform="matrix(1 0 0 1 337.0944 504.44)" class="st6 st7 st8">2010</text>
	<line class="st5" x1="411" y1="480.5" x2="411" y2="480.5"/>
	<text transform="matrix(1 0 0 1 395.9438 504.44)" class="st6 st7 st8">2011</text>
	<line class="st5" x1="469.3" y1="480.5" x2="469.3" y2="480.5"/>
	<text transform="matrix(1 0 0 1 453.7611 504.44)" class="st6 st7 st8">2012</text>
	<line class="st5" x1="527.7" y1="480.5" x2="527.7" y2="480.5"/>
	<text transform="matrix(1 0 0 1 512.0944 504.44)" class="st6 st7 st8">2013</text>
	<line class="st5" x1="586" y1="480.5" x2="586" y2="480.5"/>
	<text transform="matrix(1 0 0 1 570.4277 504.44)" class="st6 st7 st8">2014</text>
	<line class="st5" x1="644.3" y1="480.5" x2="644.3" y2="480.5"/>
	<text transform="matrix(1 0 0 1 628.761 504.44)" class="st6 st7 st8">2015</text>
	<line class="st5" x1="702.7" y1="480.5" x2="702.7" y2="480.5"/>
	<text transform="matrix(1 0 0 1 687.0944 504.44)" class="st6 st7 st8">2016</text>
	<line class="st5" x1="761" y1="480.5" x2="761" y2="480.5"/>
	<text transform="matrix(1 0 0 1 745.4277 504.44)" class="st6 st7 st8">2017</text>
	<g>
		<g>
			<line class="st2" x1="703.2" y1="25.5" x2="703.2" y2="31.5"/>
			<line class="st3" x1="703.2" y1="43.6" x2="703.2" y2="134.9"/>
			<line class="st2" x1="703.2" y1="141" x2="703.2" y2="147"/>
		</g>
	</g>
	<g>
		<g>
			<line class="st2" x1="582.1" y1="25.5" x2="588.1" y2="25.5"/>
			<line class="st3" x1="600.2" y1="25.5" x2="691.5" y2="25.5"/>
			<line class="st2" x1="697.6" y1="25.5" x2="703.6" y2="25.5"/>
		</g>
	</g>
	<text transform="matrix(1 0 0 1 371.1667 26.48)" class="st9 st10 st11">Kevin Durant joins the team.</text>
	<g>
		<g>
			<line class="st2" x1="586.5" y1="131.6" x2="586.5" y2="137.6"/>
			<line class="st12" x1="586.5" y1="145.1" x2="586.5" y2="156.3"/>
			<line class="st2" x1="586.5" y1="160" x2="586.5" y2="166"/>
		</g>
	</g>
	<text transform="matrix(1 0 0 1 281.8776 111)"><tspan x="0" y="0" class="st9 st10 st11">The Warriors win first of </tspan><tspan x="22.1" y="21.6" class="st9 st10 st11">three championships.</tspan></text>
</g>
<g id="ai2html-settings">
	<rect x="-450" style="fill:none;" width="400" height="418"/>
	<text id="ai2html-settings_1_" transform="matrix(1 0 0 1 -450 10.6499)"><tspan x="0" y="0" style="font-family:'MyriadPro-Regular'; font-size:15px;">ai2html-settings</tspan><tspan x="0" y="19" style="font-family:'MyriadPro-Regular'; font-size:15px;">settings_version: 0.76.0</tspan><tspan x="0" y="38" style="font-family:'MyriadPro-Regular'; font-size:15px;">image_format: auto</tspan><tspan x="0" y="57" style="font-family:'MyriadPro-Regular'; font-size:15px;">responsiveness: fixed</tspan><tspan x="0" y="76" style="font-family:'MyriadPro-Regular'; font-size:15px;">output: one-file</tspan><tspan x="0" y="95" style="font-family:'MyriadPro-Regular'; font-size:15px;">html_output_path: /ai2html-output/</tspan><tspan x="0" y="114" style="font-family:'MyriadPro-Regular'; font-size:15px;">html_output_extension: .html</tspan><tspan x="0" y="133" style="font-family:'MyriadPro-Regular'; font-size:15px;">image_output_path: </tspan><tspan x="0" y="152" style="font-family:'MyriadPro-Regular'; font-size:15px;">local_preview_template: </tspan><tspan x="0" y="171" style="font-family:'MyriadPro-Regular'; font-size:15px;">png_number_of_colors: 128</tspan><tspan x="0" y="190" style="font-family:'MyriadPro-Regular'; font-size:15px;">jpg_quality: 60</tspan><tspan x="0" y="209" style="font-family:'MyriadPro-Regular'; font-size:15px;">headline: Ai Graphic Headline</tspan><tspan x="0" y="228" style="font-family:'MyriadPro-Regular'; font-size:15px;">leadin: Introductory text here.</tspan><tspan x="0" y="247" style="font-family:'MyriadPro-Regular'; font-size:15px;">notes: Notes: Text goes here.</tspan><tspan x="0" y="266" style="font-family:'MyriadPro-Regular'; font-size:15px;">sources: Source: Name goes here.</tspan><tspan x="0" y="285" style="font-family:'MyriadPro-Regular'; font-size:15px;">credit: By ai2html</tspan></text>
</g>
</svg>
