<?xml version="1.0" encoding="utf-8" standalone="no"?>
<!DOCTYPE svg PUBLIC "-//W3C//DTD SVG 1.1//EN"
  "http://www.w3.org/Graphics/SVG/1.1/DTD/svg11.dtd">
<!-- Created with matplotlib (http://matplotlib.org/) -->
<svg height="482.716875pt" version="1.1" viewBox="0 0 836.210156 482.716875" width="836.210156pt" xmlns="http://www.w3.org/2000/svg" xmlns:xlink="http://www.w3.org/1999/xlink">
 <defs>
  <style type="text/css">
*{stroke-linecap:butt;stroke-linejoin:round;}
  </style>
 </defs>
 <g id="figure_1">
  <g id="patch_1">
   <path d="M 0 482.716875 
L 836.210156 482.716875 
L 836.210156 0 
L 0 0 
z
" style="fill:#111111;"/>
  </g>
  <g id="axes_1">
   <g id="patch_2">
    <path d="M 44.310156 454.22 
L 825.510156 454.22 
L 825.510156 10.7 
L 44.310156 10.7 
z
" style="fill:#111111;"/>
   </g>
   <g id="matplotlib.axis_1">
    <g id="xtick_1">
     <g id="line2d_1">
      <path clip-path="url(#pf06801874f)" d="M 44.310156 454.22 
L 44.310156 10.7 
" style="fill:none;stroke:#2d2d2d;stroke-dasharray:2.96,1.28;stroke-dashoffset:0;stroke-width:0.8;"/>
     </g>
     <g id="text_1">
      <!-- 0 -->
      <defs>
       <path d="M 45.953125 29.390625 
Q 45.953125 14.65625 40.59375 6.828125 
Q 35.25 -0.984375 25.34375 -0.984375 
Q 15.53125 -0.984375 10.171875 6.609375 
Q 4.828125 14.203125 4.640625 28.375 
L 4.640625 41.796875 
Q 4.640625 56.5 9.953125 64.28125 
Q 15.28125 72.078125 25.234375 72.078125 
Q 35.203125 72.078125 40.515625 64.359375 
Q 45.84375 56.640625 45.953125 42.328125 
z
M 32.078125 43.796875 
Q 32.078125 52.203125 30.421875 56.390625 
Q 28.765625 60.59375 25.25 60.59375 
Q 18.65625 60.59375 18.40625 45.21875 
L 18.40625 27.484375 
Q 18.40625 18.890625 20.09375 14.6875 
Q 21.78125 10.5 25.34375 10.5 
Q 28.71875 10.5 30.34375 14.421875 
Q 31.984375 18.359375 32.078125 26.46875 
z
" id="RobotoCondensed-Bold-30"/>
      </defs>
      <g style="fill:#ddddc9;" transform="translate(40.515625 472.47)scale(0.15 -0.15)">
       <use xlink:href="#RobotoCondensed-Bold-30"/>
      </g>
     </g>
    </g>
    <g id="xtick_2">
     <g id="line2d_2">
      <path clip-path="url(#pf06801874f)" d="M 136.162008 454.22 
L 136.162008 10.7 
" style="fill:none;stroke:#2d2d2d;stroke-dasharray:2.96,1.28;stroke-dashoffset:0;stroke-width:0.8;"/>
     </g>
     <g id="text_2">
      <!-- 10 -->
      <defs>
       <path d="M 35.0625 0 
L 21.1875 0 
L 21.1875 54.296875 
L 7.671875 49.078125 
L 7.671875 60.59375 
L 33.59375 71.1875 
L 35.0625 71.1875 
z
" id="RobotoCondensed-Bold-31"/>
      </defs>
      <g style="fill:#ddddc9;" transform="translate(128.572946 472.47)scale(0.15 -0.15)">
       <use xlink:href="#RobotoCondensed-Bold-31"/>
       <use x="50.585938" xlink:href="#RobotoCondensed-Bold-30"/>
      </g>
     </g>
    </g>
    <g id="xtick_3">
     <g id="line2d_3">
      <path clip-path="url(#pf06801874f)" d="M 228.01386 454.22 
L 228.01386 10.7 
" style="fill:none;stroke:#2d2d2d;stroke-dasharray:2.96,1.28;stroke-dashoffset:0;stroke-width:0.8;"/>
     </g>
     <g id="text_3">
      <!-- 20 -->
      <defs>
       <path d="M 46.53125 0 
L 4.640625 0 
L 4.640625 9.765625 
L 23.875 34.234375 
Q 27.546875 39.3125 29.265625 43.140625 
Q 31 46.96875 31 50.484375 
Q 31 55.21875 29.359375 57.90625 
Q 27.734375 60.59375 24.65625 60.59375 
Q 21.296875 60.59375 19.3125 57.46875 
Q 17.328125 54.34375 17.328125 48.6875 
L 3.46875 48.6875 
Q 3.46875 55.21875 6.171875 60.640625 
Q 8.890625 66.0625 13.796875 69.0625 
Q 18.703125 72.078125 24.90625 72.078125 
Q 34.421875 72.078125 39.671875 66.828125 
Q 44.921875 61.578125 44.921875 51.90625 
Q 44.921875 45.90625 42.015625 39.71875 
Q 39.109375 33.546875 31.5 24.515625 
L 22.359375 11.46875 
L 46.53125 11.46875 
z
" id="RobotoCondensed-Bold-32"/>
      </defs>
      <g style="fill:#ddddc9;" transform="translate(220.424797 472.47)scale(0.15 -0.15)">
       <use xlink:href="#RobotoCondensed-Bold-32"/>
       <use x="50.585938" xlink:href="#RobotoCondensed-Bold-30"/>
      </g>
     </g>
    </g>
    <g id="xtick_4">
     <g id="line2d_4">
      <path clip-path="url(#pf06801874f)" d="M 319.865712 454.22 
L 319.865712 10.7 
" style="fill:none;stroke:#2d2d2d;stroke-dasharray:2.96,1.28;stroke-dashoffset:0;stroke-width:0.8;"/>
     </g>
     <g id="text_4">
      <!-- 30 -->
      <defs>
       <path d="M 16.9375 41.84375 
L 23.640625 41.84375 
Q 27.4375 41.84375 29.21875 44.5 
Q 31 47.171875 31 51.609375 
Q 31 55.859375 29.171875 58.21875 
Q 27.34375 60.59375 24.265625 60.59375 
Q 21.390625 60.59375 19.546875 58.34375 
Q 17.71875 56.109375 17.71875 52.6875 
L 3.90625 52.6875 
Q 3.90625 58.25 6.46875 62.671875 
Q 9.03125 67.09375 13.640625 69.578125 
Q 18.265625 72.078125 23.875 72.078125 
Q 33.6875 72.078125 39.25 66.65625 
Q 44.828125 61.234375 44.828125 51.8125 
Q 44.828125 46.96875 42.3125 42.84375 
Q 39.796875 38.71875 35.6875 36.53125 
Q 40.71875 34.375 43.1875 30.078125 
Q 45.65625 25.78125 45.65625 19.921875 
Q 45.65625 10.453125 39.625 4.734375 
Q 33.59375 -0.984375 23.78125 -0.984375 
Q 14.65625 -0.984375 8.953125 4.65625 
Q 3.265625 10.296875 3.265625 19.484375 
L 17.09375 19.484375 
Q 17.09375 15.671875 19.09375 13.078125 
Q 21.09375 10.5 24.171875 10.5 
Q 27.734375 10.5 29.8125 13.125 
Q 31.890625 15.765625 31.890625 20.171875 
Q 31.890625 30.671875 23.734375 30.71875 
L 16.9375 30.71875 
z
" id="RobotoCondensed-Bold-33"/>
      </defs>
      <g style="fill:#ddddc9;" transform="translate(312.276649 472.47)scale(0.15 -0.15)">
       <use xlink:href="#RobotoCondensed-Bold-33"/>
       <use x="50.585938" xlink:href="#RobotoCondensed-Bold-30"/>
      </g>
     </g>
    </g>
    <g id="xtick_5">
     <g id="line2d_5">
      <path clip-path="url(#pf06801874f)" d="M 411.717564 454.22 
L 411.717564 10.7 
" style="fill:none;stroke:#2d2d2d;stroke-dasharray:2.96,1.28;stroke-dashoffset:0;stroke-width:0.8;"/>
     </g>
     <g id="text_5">
      <!-- 40 -->
      <defs>
       <path d="M 41.0625 26.859375 
L 47.125 26.859375 
L 47.125 15.375 
L 41.0625 15.375 
L 41.0625 0 
L 27.25 0 
L 27.25 15.375 
L 3.71875 15.375 
L 3.078125 24.3125 
L 27.203125 71.09375 
L 41.0625 71.09375 
z
M 16.5 26.859375 
L 27.25 26.859375 
L 27.25 50.640625 
L 26.953125 50.09375 
z
" id="RobotoCondensed-Bold-34"/>
      </defs>
      <g style="fill:#ddddc9;" transform="translate(404.128501 472.47)scale(0.15 -0.15)">
       <use xlink:href="#RobotoCondensed-Bold-34"/>
       <use x="50.585938" xlink:href="#RobotoCondensed-Bold-30"/>
      </g>
     </g>
    </g>
    <g id="xtick_6">
     <g id="line2d_6">
      <path clip-path="url(#pf06801874f)" d="M 503.569416 454.22 
L 503.569416 10.7 
" style="fill:none;stroke:#2d2d2d;stroke-dasharray:2.96,1.28;stroke-dashoffset:0;stroke-width:0.8;"/>
     </g>
     <g id="text_6">
      <!-- 50 -->
      <defs>
       <path d="M 6.0625 34.96875 
L 9.578125 71.09375 
L 44 71.09375 
L 44 59.28125 
L 20.90625 59.28125 
L 19.625 44.046875 
Q 23.640625 46.734375 27.875 46.734375 
Q 36.671875 46.734375 41.421875 40.484375 
Q 46.1875 34.234375 46.1875 22.796875 
Q 46.1875 12.109375 40.515625 5.5625 
Q 34.859375 -0.984375 25.390625 -0.984375 
Q 19.78125 -0.984375 14.984375 1.671875 
Q 10.203125 4.34375 7.4375 9.078125 
Q 4.6875 13.8125 4.640625 19.828125 
L 18.3125 19.828125 
Q 18.65625 15.375 20.5 12.9375 
Q 22.359375 10.5 25.296875 10.5 
Q 28.71875 10.5 30.5625 13.796875 
Q 32.421875 17.09375 32.421875 23.640625 
Q 32.421875 29.78125 30.203125 32.90625 
Q 27.984375 36.03125 23.96875 36.03125 
Q 20.0625 36.03125 17.921875 33.34375 
L 17.046875 32.125 
z
" id="RobotoCondensed-Bold-35"/>
      </defs>
      <g style="fill:#ddddc9;" transform="translate(495.980353 472.47)scale(0.15 -0.15)">
       <use xlink:href="#RobotoCondensed-Bold-35"/>
       <use x="50.585938" xlink:href="#RobotoCondensed-Bold-30"/>
      </g>
     </g>
    </g>
    <g id="xtick_7">
     <g id="line2d_7">
      <path clip-path="url(#pf06801874f)" d="M 595.421267 454.22 
L 595.421267 10.7 
" style="fill:none;stroke:#2d2d2d;stroke-dasharray:2.96,1.28;stroke-dashoffset:0;stroke-width:0.8;"/>
     </g>
     <g id="text_7">
      <!-- 60 -->
      <defs>
       <path d="M 37.59375 71.828125 
L 37.59375 60.109375 
L 36.8125 60.109375 
Q 29.046875 60.0625 24.484375 55.4375 
Q 19.921875 50.828125 18.953125 42.53125 
Q 23.390625 47.609375 30.078125 47.609375 
Q 37.796875 47.609375 42.40625 41.015625 
Q 47.015625 34.421875 47.015625 23.4375 
Q 47.015625 16.453125 44.375 10.828125 
Q 41.75 5.21875 36.984375 2.109375 
Q 32.234375 -0.984375 26.21875 -0.984375 
Q 16.546875 -0.984375 10.71875 6.78125 
Q 4.890625 14.546875 4.890625 27.6875 
L 4.890625 32.8125 
Q 4.890625 44.578125 8.5625 53.40625 
Q 12.25 62.25 19.203125 67.015625 
Q 26.171875 71.78125 35.453125 71.828125 
z
M 25.734375 36.1875 
Q 23.09375 36.1875 21.3125 34.515625 
Q 19.53125 32.859375 18.65625 30.421875 
L 18.65625 25.4375 
Q 18.65625 17.921875 20.65625 14.203125 
Q 22.65625 10.5 25.921875 10.5 
Q 29.25 10.5 31.25 14.078125 
Q 33.25 17.671875 33.25 23.296875 
Q 33.25 29 31.171875 32.59375 
Q 29.109375 36.1875 25.734375 36.1875 
z
" id="RobotoCondensed-Bold-36"/>
      </defs>
      <g style="fill:#ddddc9;" transform="translate(587.832205 472.47)scale(0.15 -0.15)">
       <use xlink:href="#RobotoCondensed-Bold-36"/>
       <use x="50.585938" xlink:href="#RobotoCondensed-Bold-30"/>
      </g>
     </g>
    </g>
    <g id="xtick_8">
     <g id="line2d_8">
      <path clip-path="url(#pf06801874f)" d="M 687.273119 454.22 
L 687.273119 10.7 
" style="fill:none;stroke:#2d2d2d;stroke-dasharray:2.96,1.28;stroke-dashoffset:0;stroke-width:0.8;"/>
     </g>
     <g id="text_8">
      <!-- 70 -->
      <defs>
       <path d="M 46.34375 63.140625 
L 23.875 0 
L 9.28125 0 
L 31.84375 59.625 
L 3.328125 59.625 
L 3.328125 71.09375 
L 46.34375 71.09375 
z
" id="RobotoCondensed-Bold-37"/>
      </defs>
      <g style="fill:#ddddc9;" transform="translate(679.684057 472.47)scale(0.15 -0.15)">
       <use xlink:href="#RobotoCondensed-Bold-37"/>
       <use x="50.585938" xlink:href="#RobotoCondensed-Bold-30"/>
      </g>
     </g>
    </g>
    <g id="xtick_9">
     <g id="line2d_9">
      <path clip-path="url(#pf06801874f)" d="M 779.124971 454.22 
L 779.124971 10.7 
" style="fill:none;stroke:#2d2d2d;stroke-dasharray:2.96,1.28;stroke-dashoffset:0;stroke-width:0.8;"/>
     </g>
     <g id="text_9">
      <!-- 80 -->
      <defs>
       <path d="M 44.484375 52.203125 
Q 44.484375 47.015625 42.28125 43.015625 
Q 40.09375 39.015625 36.234375 36.625 
Q 40.625 34.125 43.15625 29.75 
Q 45.703125 25.390625 45.703125 19.484375 
Q 45.703125 10.015625 40.234375 4.515625 
Q 34.765625 -0.984375 25.34375 -0.984375 
Q 15.921875 -0.984375 10.34375 4.515625 
Q 4.78125 10.015625 4.78125 19.484375 
Q 4.78125 25.390625 7.3125 29.78125 
Q 9.859375 34.1875 14.3125 36.625 
Q 10.40625 39.015625 8.203125 43.015625 
Q 6 47.015625 6 52.203125 
Q 6 61.53125 11.21875 66.796875 
Q 16.453125 72.078125 25.25 72.078125 
Q 34.125 72.078125 39.296875 66.75 
Q 44.484375 61.421875 44.484375 52.203125 
z
M 25.34375 10.5 
Q 28.46875 10.5 30.15625 13.15625 
Q 31.84375 15.828125 31.84375 20.5625 
Q 31.84375 25.296875 30.078125 27.984375 
Q 28.328125 30.671875 25.25 30.671875 
Q 22.171875 30.671875 20.390625 27.984375 
Q 18.609375 25.296875 18.609375 20.5625 
Q 18.609375 15.828125 20.390625 13.15625 
Q 22.171875 10.5 25.34375 10.5 
z
M 30.71875 51.46875 
Q 30.71875 55.609375 29.375 58.09375 
Q 28.03125 60.59375 25.25 60.59375 
Q 22.609375 60.59375 21.234375 58.171875 
Q 19.875 55.765625 19.875 51.46875 
Q 19.875 47.265625 21.234375 44.703125 
Q 22.609375 42.140625 25.34375 42.140625 
Q 28.078125 42.140625 29.390625 44.703125 
Q 30.71875 47.265625 30.71875 51.46875 
z
" id="RobotoCondensed-Bold-38"/>
      </defs>
      <g style="fill:#ddddc9;" transform="translate(771.535909 472.47)scale(0.15 -0.15)">
       <use xlink:href="#RobotoCondensed-Bold-38"/>
       <use x="50.585938" xlink:href="#RobotoCondensed-Bold-30"/>
      </g>
     </g>
    </g>
   </g>
   <g id="matplotlib.axis_2">
    <g id="ytick_1">
     <g id="text_10">
      <!-- NYK -->
      <defs>
       <path d="M 55.421875 0 
L 41.0625 0 
L 20.0625 46.625 
L 20.0625 0 
L 5.71875 0 
L 5.71875 71.09375 
L 20.0625 71.09375 
L 41.109375 24.421875 
L 41.109375 71.09375 
L 55.421875 71.09375 
z
" id="RobotoCondensed-Bold-4e"/>
       <path d="M 27.15625 39.15625 
L 37.84375 71.09375 
L 53.46875 71.09375 
L 34.421875 25.78125 
L 34.421875 0 
L 19.875 0 
L 19.875 25.78125 
L 0.78125 71.09375 
L 16.40625 71.09375 
z
" id="RobotoCondensed-Bold-59"/>
       <path d="M 25.734375 27.4375 
L 20.0625 20.3125 
L 20.0625 0 
L 5.71875 0 
L 5.71875 71.09375 
L 20.0625 71.09375 
L 20.0625 40.09375 
L 24.609375 47.75 
L 37.84375 71.09375 
L 55.421875 71.09375 
L 35.0625 39.84375 
L 55.765625 0 
L 38.71875 0 
z
" id="RobotoCondensed-Bold-4b"/>
      </defs>
      <g style="fill:#ddddc9;" transform="translate(11.688281 452.453)scale(0.15 -0.15)">
       <use xlink:href="#RobotoCondensed-Bold-4e"/>
       <use x="61.230469" xlink:href="#RobotoCondensed-Bold-59"/>
       <use x="115.478516" xlink:href="#RobotoCondensed-Bold-4b"/>
      </g>
     </g>
    </g>
    <g id="ytick_2">
     <g id="text_11">
      <!-- MIL -->
      <defs>
       <path d="M 24.46875 71.09375 
L 37.890625 19.671875 
L 51.265625 71.09375 
L 70.015625 71.09375 
L 70.015625 0 
L 55.609375 0 
L 55.609375 19.234375 
L 56.9375 48.875 
L 42.71875 0 
L 32.953125 0 
L 18.75 48.875 
L 20.0625 19.234375 
L 20.0625 0 
L 5.71875 0 
L 5.71875 71.09375 
z
" id="RobotoCondensed-Bold-4d"/>
       <path d="M 20.703125 0 
L 6.34375 0 
L 6.34375 71.09375 
L 20.703125 71.09375 
z
" id="RobotoCondensed-Bold-49"/>
       <path d="M 20.0625 11.921875 
L 45.265625 11.921875 
L 45.265625 0 
L 5.71875 0 
L 5.71875 71.09375 
L 20.0625 71.09375 
z
" id="RobotoCondensed-Bold-4c"/>
      </defs>
      <g style="fill:#ddddc9;" transform="translate(14.7 437.669)scale(0.15 -0.15)">
       <use xlink:href="#RobotoCondensed-Bold-4d"/>
       <use x="75.830078" xlink:href="#RobotoCondensed-Bold-49"/>
       <use x="102.880859" xlink:href="#RobotoCondensed-Bold-4c"/>
      </g>
     </g>
    </g>
    <g id="ytick_3">
     <g id="text_12">
      <!-- NJN -->
      <defs>
       <path d="M 29.109375 71.09375 
L 43.453125 71.09375 
L 43.453125 21.875 
Q 43.453125 11.53125 37.6875 5.265625 
Q 31.9375 -0.984375 22.859375 -0.984375 
Q 13.09375 -0.984375 7.671875 4.828125 
Q 2.25 10.640625 2.25 21 
L 16.65625 21 
Q 16.65625 10.9375 22.859375 10.9375 
Q 29.109375 10.9375 29.109375 22.5625 
z
" id="RobotoCondensed-Bold-4a"/>
      </defs>
      <g style="fill:#ddddc9;" transform="translate(11.585156 422.885)scale(0.15 -0.15)">
       <use xlink:href="#RobotoCondensed-Bold-4e"/>
       <use x="61.230469" xlink:href="#RobotoCondensed-Bold-4a"/>
       <use x="110.253906" xlink:href="#RobotoCondensed-Bold-4e"/>
      </g>
     </g>
    </g>
    <g id="ytick_4">
     <g id="text_13">
      <!-- MIN -->
      <g style="fill:#ddddc9;" transform="translate(12.69375 408.101)scale(0.15 -0.15)">
       <use xlink:href="#RobotoCondensed-Bold-4d"/>
       <use x="75.830078" xlink:href="#RobotoCondensed-Bold-49"/>
       <use x="102.880859" xlink:href="#RobotoCondensed-Bold-4e"/>
      </g>
     </g>
    </g>
    <g id="ytick_5">
     <g id="text_14">
      <!-- LAC -->
      <defs>
       <path d="M 39.65625 14.546875 
L 20.0625 14.546875 
L 16.265625 0 
L 1.078125 0 
L 23.296875 71.09375 
L 36.421875 71.09375 
L 58.796875 0 
L 43.453125 0 
z
M 23.1875 26.515625 
L 36.46875 26.515625 
L 29.828125 51.859375 
z
" id="RobotoCondensed-Bold-41"/>
       <path d="M 53.90625 23.6875 
Q 53.375 11.53125 47.0625 5.265625 
Q 40.765625 -0.984375 29.296875 -0.984375 
Q 17.234375 -0.984375 10.8125 6.953125 
Q 4.390625 14.890625 4.390625 29.59375 
L 4.390625 41.546875 
Q 4.390625 56.203125 11.03125 64.140625 
Q 17.671875 72.078125 29.5 72.078125 
Q 41.109375 72.078125 47.140625 65.578125 
Q 53.171875 59.078125 54 46.921875 
L 39.59375 46.921875 
Q 39.40625 54.4375 37.28125 57.296875 
Q 35.15625 60.15625 29.5 60.15625 
Q 23.734375 60.15625 21.34375 56.125 
Q 18.953125 52.09375 18.796875 42.875 
L 18.796875 29.4375 
Q 18.796875 18.84375 21.15625 14.890625 
Q 23.53125 10.9375 29.296875 10.9375 
Q 34.96875 10.9375 37.109375 13.6875 
Q 39.265625 16.453125 39.546875 23.6875 
z
" id="RobotoCondensed-Bold-43"/>
      </defs>
      <g style="fill:#ddddc9;" transform="translate(12.61875 393.317)scale(0.15 -0.15)">
       <use xlink:href="#RobotoCondensed-Bold-4c"/>
       <use x="47.851562" xlink:href="#RobotoCondensed-Bold-41"/>
       <use x="107.568359" xlink:href="#RobotoCondensed-Bold-43"/>
      </g>
     </g>
    </g>
    <g id="ytick_6">
     <g id="text_15">
      <!-- NOH -->
      <defs>
       <path d="M 55.765625 29.15625 
Q 55.765625 14.84375 49 6.921875 
Q 42.234375 -0.984375 30.21875 -0.984375 
Q 18.265625 -0.984375 11.421875 6.859375 
Q 4.59375 14.703125 4.5 28.8125 
L 4.5 40.96875 
Q 4.5 55.609375 11.28125 63.84375 
Q 18.0625 72.078125 30.125 72.078125 
Q 42 72.078125 48.828125 63.984375 
Q 55.671875 55.90625 55.765625 41.3125 
z
M 41.359375 41.0625 
Q 41.359375 50.6875 38.625 55.375 
Q 35.890625 60.0625 30.125 60.0625 
Q 24.421875 60.0625 21.6875 55.546875 
Q 18.953125 51.03125 18.84375 41.796875 
L 18.84375 29.15625 
Q 18.84375 19.828125 21.625 15.40625 
Q 24.421875 10.984375 30.21875 10.984375 
Q 35.84375 10.984375 38.578125 15.296875 
Q 41.3125 19.625 41.359375 28.71875 
z
" id="RobotoCondensed-Bold-4f"/>
       <path d="M 55.5625 0 
L 41.265625 0 
L 41.265625 30.421875 
L 20.0625 30.421875 
L 20.0625 0 
L 5.71875 0 
L 5.71875 71.09375 
L 20.0625 71.09375 
L 20.0625 42.328125 
L 41.265625 42.328125 
L 41.265625 71.09375 
L 55.5625 71.09375 
z
" id="RobotoCondensed-Bold-48"/>
      </defs>
      <g style="fill:#ddddc9;" transform="translate(9.864844 378.533)scale(0.15 -0.15)">
       <use xlink:href="#RobotoCondensed-Bold-4e"/>
       <use x="61.230469" xlink:href="#RobotoCondensed-Bold-4f"/>
       <use x="121.582031" xlink:href="#RobotoCondensed-Bold-48"/>
      </g>
     </g>
    </g>
    <g id="ytick_7">
     <g id="text_16">
      <!-- SAC -->
      <defs>
       <path d="M 35.75 18.65625 
Q 35.75 23 33.515625 25.21875 
Q 31.296875 27.4375 25.4375 29.828125 
Q 14.75 33.890625 10.0625 39.328125 
Q 5.375 44.78125 5.375 52.203125 
Q 5.375 61.1875 11.734375 66.625 
Q 18.109375 72.078125 27.9375 72.078125 
Q 34.46875 72.078125 39.59375 69.3125 
Q 44.734375 66.546875 47.484375 61.515625 
Q 50.25 56.5 50.25 50.09375 
L 35.9375 50.09375 
Q 35.9375 55.078125 33.8125 57.6875 
Q 31.6875 60.296875 27.6875 60.296875 
Q 23.921875 60.296875 21.828125 58.078125 
Q 19.734375 55.859375 19.734375 52.09375 
Q 19.734375 49.171875 22.078125 46.796875 
Q 24.421875 44.4375 30.375 41.890625 
Q 40.765625 38.140625 45.484375 32.671875 
Q 50.203125 27.203125 50.203125 18.75 
Q 50.203125 9.46875 44.28125 4.234375 
Q 38.375 -0.984375 28.21875 -0.984375 
Q 21.34375 -0.984375 15.671875 1.84375 
Q 10.015625 4.6875 6.8125 9.953125 
Q 3.609375 15.234375 3.609375 22.40625 
L 18.015625 22.40625 
Q 18.015625 16.265625 20.40625 13.46875 
Q 22.796875 10.6875 28.21875 10.6875 
Q 35.75 10.6875 35.75 18.65625 
z
" id="RobotoCondensed-Bold-53"/>
      </defs>
      <g style="fill:#ddddc9;" transform="translate(11.697656 363.749)scale(0.15 -0.15)">
       <use xlink:href="#RobotoCondensed-Bold-53"/>
       <use x="54.003906" xlink:href="#RobotoCondensed-Bold-41"/>
       <use x="113.720703" xlink:href="#RobotoCondensed-Bold-43"/>
      </g>
     </g>
    </g>
    <g id="ytick_8">
     <g id="text_17">
      <!-- CHA -->
      <g style="fill:#ddddc9;" transform="translate(10.591406 348.965)scale(0.15 -0.15)">
       <use xlink:href="#RobotoCondensed-Bold-43"/>
       <use x="57.03125" xlink:href="#RobotoCondensed-Bold-48"/>
       <use x="118.408203" xlink:href="#RobotoCondensed-Bold-41"/>
      </g>
     </g>
    </g>
    <g id="ytick_9">
     <g id="text_18">
      <!-- DAL -->
      <defs>
       <path d="M 5.71875 0 
L 5.71875 71.09375 
L 24.515625 71.09375 
Q 36.96875 71.09375 44.359375 63.1875 
Q 51.765625 55.28125 51.90625 41.5 
L 51.90625 29.984375 
Q 51.90625 15.96875 44.5 7.984375 
Q 37.109375 0 24.125 0 
z
M 20.0625 59.125 
L 20.0625 11.921875 
L 24.359375 11.921875 
Q 31.546875 11.921875 34.46875 15.703125 
Q 37.40625 19.484375 37.546875 28.765625 
L 37.546875 41.109375 
Q 37.546875 51.078125 34.765625 55 
Q 31.984375 58.9375 25.296875 59.125 
z
" id="RobotoCondensed-Bold-44"/>
      </defs>
      <g style="fill:#ddddc9;" transform="translate(12.698438 334.181)scale(0.15 -0.15)">
       <use xlink:href="#RobotoCondensed-Bold-44"/>
       <use x="56.494141" xlink:href="#RobotoCondensed-Bold-41"/>
       <use x="116.210938" xlink:href="#RobotoCondensed-Bold-4c"/>
      </g>
     </g>
    </g>
    <g id="ytick_10">
     <g id="text_19">
      <!-- PHO -->
      <defs>
       <path d="M 20.0625 25 
L 20.0625 0 
L 5.71875 0 
L 5.71875 71.09375 
L 29.9375 71.09375 
Q 40.484375 71.09375 46.75 64.546875 
Q 53.03125 58.015625 53.03125 47.5625 
Q 53.03125 37.109375 46.828125 31.046875 
Q 40.625 25 29.640625 25 
z
M 20.0625 36.96875 
L 29.9375 36.96875 
Q 34.03125 36.96875 36.28125 39.640625 
Q 38.53125 42.328125 38.53125 47.46875 
Q 38.53125 52.78125 36.234375 55.921875 
Q 33.9375 59.078125 30.078125 59.125 
L 20.0625 59.125 
z
" id="RobotoCondensed-Bold-50"/>
      </defs>
      <g style="fill:#ddddc9;" transform="translate(10.516406 319.397)scale(0.15 -0.15)">
       <use xlink:href="#RobotoCondensed-Bold-50"/>
       <use x="56.884766" xlink:href="#RobotoCondensed-Bold-48"/>
       <use x="118.261719" xlink:href="#RobotoCondensed-Bold-4f"/>
      </g>
     </g>
    </g>
    <g id="ytick_11">
     <g id="text_20">
      <!-- TOR -->
      <defs>
       <path d="M 51.765625 59.125 
L 34.1875 59.125 
L 34.1875 0 
L 19.78125 0 
L 19.78125 59.125 
L 2.484375 59.125 
L 2.484375 71.09375 
L 51.765625 71.09375 
z
" id="RobotoCondensed-Bold-54"/>
       <path d="M 27.25 25.984375 
L 20.125 25.984375 
L 20.125 0 
L 5.765625 0 
L 5.765625 71.09375 
L 28.65625 71.09375 
Q 39.453125 71.09375 45.328125 65.5 
Q 51.21875 59.90625 51.21875 49.609375 
Q 51.21875 35.453125 40.921875 29.78125 
L 53.375 0.6875 
L 53.375 0 
L 37.9375 0 
z
M 20.125 37.9375 
L 28.265625 37.9375 
Q 32.5625 37.9375 34.703125 40.796875 
Q 36.859375 43.65625 36.859375 48.4375 
Q 36.859375 59.125 28.515625 59.125 
L 20.125 59.125 
z
" id="RobotoCondensed-Bold-52"/>
      </defs>
      <g style="fill:#ddddc9;" transform="translate(11.805469 304.613)scale(0.15 -0.15)">
       <use xlink:href="#RobotoCondensed-Bold-54"/>
       <use x="54.296875" xlink:href="#RobotoCondensed-Bold-4f"/>
       <use x="114.648438" xlink:href="#RobotoCondensed-Bold-52"/>
      </g>
     </g>
    </g>
    <g id="ytick_12">
     <g id="text_21">
      <!-- PHI -->
      <g style="fill:#ddddc9;" transform="translate(15.513281 289.829)scale(0.15 -0.15)">
       <use xlink:href="#RobotoCondensed-Bold-50"/>
       <use x="56.884766" xlink:href="#RobotoCondensed-Bold-48"/>
       <use x="118.261719" xlink:href="#RobotoCondensed-Bold-49"/>
      </g>
     </g>
    </g>
    <g id="ytick_13">
     <g id="text_22">
      <!-- LAL -->
      <g style="fill:#ddddc9;" transform="translate(13.994531 275.045)scale(0.15 -0.15)">
       <use xlink:href="#RobotoCondensed-Bold-4c"/>
       <use x="47.851562" xlink:href="#RobotoCondensed-Bold-41"/>
       <use x="107.568359" xlink:href="#RobotoCondensed-Bold-4c"/>
      </g>
     </g>
    </g>
    <g id="ytick_14">
     <g id="text_23">
      <!-- HOU -->
      <defs>
       <path d="M 51.953125 71.09375 
L 51.953125 21.875 
Q 51.859375 10.796875 45.84375 4.90625 
Q 39.84375 -0.984375 28.609375 -0.984375 
Q 17.1875 -0.984375 11.15625 4.96875 
Q 5.125 10.9375 5.125 22.21875 
L 5.125 71.09375 
L 19.578125 71.09375 
L 19.578125 22.171875 
Q 19.578125 16.109375 21.53125 13.515625 
Q 23.484375 10.9375 28.609375 10.9375 
Q 33.734375 10.9375 35.640625 13.5 
Q 37.546875 16.0625 37.59375 21.921875 
L 37.59375 71.09375 
z
" id="RobotoCondensed-Bold-55"/>
      </defs>
      <g style="fill:#ddddc9;" transform="translate(10.48125 260.261)scale(0.15 -0.15)">
       <use xlink:href="#RobotoCondensed-Bold-48"/>
       <use x="61.376953" xlink:href="#RobotoCondensed-Bold-4f"/>
       <use x="121.728516" xlink:href="#RobotoCondensed-Bold-55"/>
      </g>
     </g>
    </g>
    <g id="ytick_15">
     <g id="text_24">
      <!-- IND -->
      <g style="fill:#ddddc9;" transform="translate(15.592969 245.477)scale(0.15 -0.15)">
       <use xlink:href="#RobotoCondensed-Bold-49"/>
       <use x="27.050781" xlink:href="#RobotoCondensed-Bold-4e"/>
       <use x="88.28125" xlink:href="#RobotoCondensed-Bold-44"/>
      </g>
     </g>
    </g>
    <g id="ytick_16">
     <g id="text_25">
      <!-- MIA -->
      <g style="fill:#ddddc9;" transform="translate(12.921094 230.693)scale(0.15 -0.15)">
       <use xlink:href="#RobotoCondensed-Bold-4d"/>
       <use x="75.830078" xlink:href="#RobotoCondensed-Bold-49"/>
       <use x="102.880859" xlink:href="#RobotoCondensed-Bold-41"/>
      </g>
     </g>
    </g>
    <g id="ytick_17">
     <g id="text_26">
      <!-- ORL -->
      <g style="fill:#ddddc9;" transform="translate(12.771094 215.909)scale(0.15 -0.15)">
       <use xlink:href="#RobotoCondensed-Bold-4f"/>
       <use x="60.351562" xlink:href="#RobotoCondensed-Bold-52"/>
       <use x="115.722656" xlink:href="#RobotoCondensed-Bold-4c"/>
      </g>
     </g>
    </g>
    <g id="ytick_18">
     <g id="text_27">
      <!-- MEM -->
      <defs>
       <path d="M 42.4375 30.765625 
L 20.0625 30.765625 
L 20.0625 11.921875 
L 46.53125 11.921875 
L 46.53125 0 
L 5.71875 0 
L 5.71875 71.09375 
L 46.4375 71.09375 
L 46.4375 59.125 
L 20.0625 59.125 
L 20.0625 42.328125 
L 42.4375 42.328125 
z
" id="RobotoCondensed-Bold-45"/>
      </defs>
      <g style="fill:#ddddc9;" transform="translate(7.2 201.125)scale(0.15 -0.15)">
       <use xlink:href="#RobotoCondensed-Bold-4d"/>
       <use x="75.830078" xlink:href="#RobotoCondensed-Bold-45"/>
       <use x="124.902344" xlink:href="#RobotoCondensed-Bold-4d"/>
      </g>
     </g>
    </g>
    <g id="ytick_19">
     <g id="text_28">
      <!-- CLE -->
      <g style="fill:#ddddc9;" transform="translate(14.214844 186.341)scale(0.15 -0.15)">
       <use xlink:href="#RobotoCondensed-Bold-43"/>
       <use x="57.03125" xlink:href="#RobotoCondensed-Bold-4c"/>
       <use x="104.882812" xlink:href="#RobotoCondensed-Bold-45"/>
      </g>
     </g>
    </g>
    <g id="ytick_20">
     <g id="text_29">
      <!-- BOS -->
      <defs>
       <path d="M 5.71875 0 
L 5.71875 71.09375 
L 27.6875 71.09375 
Q 38.8125 71.09375 44.59375 66.140625 
Q 50.390625 61.1875 50.390625 51.609375 
Q 50.390625 46.1875 48 42.28125 
Q 45.609375 38.375 41.453125 36.578125 
Q 46.234375 35.203125 48.828125 31.078125 
Q 51.421875 26.953125 51.421875 20.90625 
Q 51.421875 10.546875 45.734375 5.265625 
Q 40.046875 0 29.25 0 
z
M 20.0625 30.90625 
L 20.0625 11.921875 
L 29.25 11.921875 
Q 33.109375 11.921875 35.109375 14.3125 
Q 37.109375 16.703125 37.109375 21.09375 
Q 37.109375 30.671875 30.171875 30.90625 
z
M 20.0625 41.359375 
L 27.546875 41.359375 
Q 35.984375 41.359375 35.984375 50.09375 
Q 35.984375 54.9375 34.03125 57.03125 
Q 32.078125 59.125 27.6875 59.125 
L 20.0625 59.125 
z
" id="RobotoCondensed-Bold-42"/>
      </defs>
      <g style="fill:#ddddc9;" transform="translate(11.739844 171.557)scale(0.15 -0.15)">
       <use xlink:href="#RobotoCondensed-Bold-42"/>
       <use x="56.103516" xlink:href="#RobotoCondensed-Bold-4f"/>
       <use x="116.455078" xlink:href="#RobotoCondensed-Bold-53"/>
      </g>
     </g>
    </g>
    <g id="ytick_21">
     <g id="text_30">
      <!-- CHI -->
      <g style="fill:#ddddc9;" transform="translate(15.492188 156.773)scale(0.15 -0.15)">
       <use xlink:href="#RobotoCondensed-Bold-43"/>
       <use x="57.03125" xlink:href="#RobotoCondensed-Bold-48"/>
       <use x="118.408203" xlink:href="#RobotoCondensed-Bold-49"/>
      </g>
     </g>
    </g>
    <g id="ytick_22">
     <g id="text_31">
      <!-- POR -->
      <g style="fill:#ddddc9;" transform="translate(11.416406 141.989)scale(0.15 -0.15)">
       <use xlink:href="#RobotoCondensed-Bold-50"/>
       <use x="56.884766" xlink:href="#RobotoCondensed-Bold-4f"/>
       <use x="117.236328" xlink:href="#RobotoCondensed-Bold-52"/>
      </g>
     </g>
    </g>
    <g id="ytick_23">
     <g id="text_32">
      <!-- DET -->
      <g style="fill:#ddddc9;" transform="translate(13.328906 127.205)scale(0.15 -0.15)">
       <use xlink:href="#RobotoCondensed-Bold-44"/>
       <use x="56.494141" xlink:href="#RobotoCondensed-Bold-45"/>
       <use x="105.566406" xlink:href="#RobotoCondensed-Bold-54"/>
      </g>
     </g>
    </g>
    <g id="ytick_24">
     <g id="text_33">
      <!-- GSW -->
      <defs>
       <path d="M 54.046875 8.0625 
Q 49.90625 3.5625 43.875 1.28125 
Q 37.84375 -0.984375 30.671875 -0.984375 
Q 18.40625 -0.984375 11.609375 6.609375 
Q 4.828125 14.203125 4.640625 28.71875 
L 4.640625 41.5 
Q 4.640625 56.203125 11.0625 64.140625 
Q 17.484375 72.078125 29.78125 72.078125 
Q 41.359375 72.078125 47.234375 66.359375 
Q 53.125 60.640625 54.046875 48.4375 
L 40.09375 48.4375 
Q 39.5 55.21875 37.25 57.6875 
Q 35.015625 60.15625 30.21875 60.15625 
Q 24.421875 60.15625 21.78125 55.90625 
Q 19.140625 51.65625 19.046875 42.390625 
L 19.046875 29.5 
Q 19.046875 19.78125 21.953125 15.359375 
Q 24.859375 10.9375 31.5 10.9375 
Q 35.75 10.9375 38.375 12.640625 
L 39.65625 13.53125 
L 39.65625 26.5625 
L 29.59375 26.5625 
L 29.59375 37.40625 
L 54.046875 37.40625 
z
" id="RobotoCondensed-Bold-47"/>
       <path d="M 51.90625 26.421875 
L 58.640625 71.09375 
L 72.859375 71.09375 
L 60.203125 0 
L 45.796875 0 
L 37.5 41.890625 
L 29.296875 0 
L 14.84375 0 
L 2.15625 71.09375 
L 16.453125 71.09375 
L 23.140625 26.46875 
L 31.5 71.09375 
L 43.5625 71.09375 
z
" id="RobotoCondensed-Bold-57"/>
      </defs>
      <g style="fill:#ddddc9;" transform="translate(9.199219 112.421)scale(0.15 -0.15)">
       <use xlink:href="#RobotoCondensed-Bold-47"/>
       <use x="58.496094" xlink:href="#RobotoCondensed-Bold-53"/>
       <use x="112.5" xlink:href="#RobotoCondensed-Bold-57"/>
      </g>
     </g>
    </g>
    <g id="ytick_25">
     <g id="text_34">
      <!-- WAS -->
      <g style="fill:#ddddc9;" transform="translate(9.016406 97.637)scale(0.15 -0.15)">
       <use xlink:href="#RobotoCondensed-Bold-57"/>
       <use x="74.902344" xlink:href="#RobotoCondensed-Bold-41"/>
       <use x="134.619141" xlink:href="#RobotoCondensed-Bold-53"/>
      </g>
     </g>
    </g>
    <g id="ytick_26">
     <g id="text_35">
      <!-- ATL -->
      <g style="fill:#ddddc9;" transform="translate(13.028906 82.853)scale(0.15 -0.15)">
       <use xlink:href="#RobotoCondensed-Bold-41"/>
       <use x="59.716797" xlink:href="#RobotoCondensed-Bold-54"/>
       <use x="114.013672" xlink:href="#RobotoCondensed-Bold-4c"/>
      </g>
     </g>
    </g>
    <g id="ytick_27">
     <g id="text_36">
      <!-- UTA -->
      <g style="fill:#ddddc9;" transform="translate(11.639063 68.069)scale(0.15 -0.15)">
       <use xlink:href="#RobotoCondensed-Bold-55"/>
       <use x="57.128906" xlink:href="#RobotoCondensed-Bold-54"/>
       <use x="111.425781" xlink:href="#RobotoCondensed-Bold-41"/>
      </g>
     </g>
    </g>
    <g id="ytick_28">
     <g id="text_37">
      <!-- DEN -->
      <g style="fill:#ddddc9;" transform="translate(12.288281 53.285)scale(0.15 -0.15)">
       <use xlink:href="#RobotoCondensed-Bold-44"/>
       <use x="56.494141" xlink:href="#RobotoCondensed-Bold-45"/>
       <use x="105.566406" xlink:href="#RobotoCondensed-Bold-4e"/>
      </g>
     </g>
    </g>
    <g id="ytick_29">
     <g id="text_38">
      <!-- OKC -->
      <g style="fill:#ddddc9;" transform="translate(11.402344 38.501)scale(0.15 -0.15)">
       <use xlink:href="#RobotoCondensed-Bold-4f"/>
       <use x="60.351562" xlink:href="#RobotoCondensed-Bold-4b"/>
       <use x="115.673828" xlink:href="#RobotoCondensed-Bold-43"/>
      </g>
     </g>
    </g>
    <g id="ytick_30">
     <g id="text_39">
      <!-- SAS -->
      <g style="fill:#ddddc9;" transform="translate(12.152344 23.717)scale(0.15 -0.15)">
       <use xlink:href="#RobotoCondensed-Bold-53"/>
       <use x="54.003906" xlink:href="#RobotoCondensed-Bold-41"/>
       <use x="113.720703" xlink:href="#RobotoCondensed-Bold-53"/>
      </g>
     </g>
    </g>
   </g>
   <g id="patch_3">
    <path clip-path="url(#pf06801874f)" d="M 44.310156 450.524 
L 340.204336 450.524 
L 340.204336 446.828 
L 44.310156 446.828 
z
" style="fill:#d1a72a;"/>
   </g>
   <g id="patch_4">
    <path clip-path="url(#pf06801874f)" d="M 44.310156 435.74 
L 361.199045 435.74 
L 361.199045 432.044 
L 44.310156 432.044 
z
" style="fill:#d1a72a;"/>
   </g>
   <g id="patch_5">
    <path clip-path="url(#pf06801874f)" d="M 44.310156 420.956 
L 344.796929 420.956 
L 344.796929 417.26 
L 44.310156 417.26 
z
" style="fill:#d1a72a;"/>
   </g>
   <g id="patch_6">
    <path clip-path="url(#pf06801874f)" d="M 44.310156 406.172 
L 311.336611 406.172 
L 311.336611 402.476 
L 44.310156 402.476 
z
" style="fill:#d1a72a;"/>
   </g>
   <g id="patch_7">
    <path clip-path="url(#pf06801874f)" d="M 44.310156 391.388 
L 426.151426 391.388 
L 426.151426 387.692 
L 44.310156 387.692 
z
" style="fill:#d1a72a;"/>
   </g>
   <g id="patch_8">
    <path clip-path="url(#pf06801874f)" d="M 44.310156 376.604 
L 386.786347 376.604 
L 386.786347 372.908 
L 44.310156 372.908 
z
" style="fill:#d1a72a;"/>
   </g>
   <g id="patch_9">
    <path clip-path="url(#pf06801874f)" d="M 44.310156 361.82 
L 326.426558 361.82 
L 326.426558 358.124 
L 44.310156 358.124 
z
" style="fill:#d1a72a;"/>
   </g>
   <g id="patch_10">
    <path clip-path="url(#pf06801874f)" d="M 44.310156 347.036 
L 336.923913 347.036 
L 336.923913 343.34 
L 44.310156 343.34 
z
" style="fill:#d1a72a;"/>
   </g>
   <g id="patch_11">
    <path clip-path="url(#pf06801874f)" d="M 44.310156 332.252 
L 485.85513 332.252 
L 485.85513 328.556 
L 44.310156 328.556 
z
" style="fill:#d1a72a;"/>
   </g>
   <g id="patch_12">
    <path clip-path="url(#pf06801874f)" d="M 44.310156 317.468 
L 428.11968 317.468 
L 428.11968 313.772 
L 44.310156 313.772 
z
" style="fill:#d1a72a;"/>
   </g>
   <g id="patch_13">
    <path clip-path="url(#pf06801874f)" d="M 44.310156 302.684 
L 413.685818 302.684 
L 413.685818 298.988 
L 44.310156 298.988 
z
" style="fill:#d1a72a;"/>
   </g>
   <g id="patch_14">
    <path clip-path="url(#pf06801874f)" d="M 44.310156 287.9 
L 346.765183 287.9 
L 346.765183 284.204 
L 44.310156 284.204 
z
" style="fill:#d1a72a;"/>
   </g>
   <g id="patch_15">
    <path clip-path="url(#pf06801874f)" d="M 44.310156 273.116 
L 417.622326 273.116 
L 417.622326 269.42 
L 44.310156 269.42 
z
" style="fill:#d1a72a;"/>
   </g>
   <g id="patch_16">
    <path clip-path="url(#pf06801874f)" d="M 44.310156 258.332 
L 490.447722 258.332 
L 490.447722 254.636 
L 44.310156 254.636 
z
" style="fill:#d1a72a;"/>
   </g>
   <g id="patch_17">
    <path clip-path="url(#pf06801874f)" d="M 44.310156 243.548 
L 425.495341 243.548 
L 425.495341 239.852 
L 44.310156 239.852 
z
" style="fill:#d1a72a;"/>
   </g>
   <g id="patch_18">
    <path clip-path="url(#pf06801874f)" d="M 44.310156 228.764 
L 473.389521 228.764 
L 473.389521 225.068 
L 44.310156 225.068 
z
" style="fill:#d1a72a;"/>
   </g>
   <g id="patch_19">
    <path clip-path="url(#pf06801874f)" d="M 44.310156 213.98 
L 390.722855 213.98 
L 390.722855 210.284 
L 44.310156 210.284 
z
" style="fill:#d1a72a;"/>
   </g>
   <g id="patch_20">
    <path clip-path="url(#pf06801874f)" d="M 44.310156 199.196 
L 409.74931 199.196 
L 409.74931 195.5 
L 44.310156 195.5 
z
" style="fill:#d1a72a;"/>
   </g>
   <g id="patch_21">
    <path clip-path="url(#pf06801874f)" d="M 44.310156 184.412 
L 452.394812 184.412 
L 452.394812 180.716 
L 44.310156 180.716 
z
" style="fill:#d1a72a;"/>
   </g>
   <g id="patch_22">
    <path clip-path="url(#pf06801874f)" d="M 44.310156 169.628 
L 462.236082 169.628 
L 462.236082 165.932 
L 44.310156 165.932 
z
" style="fill:#d1a72a;"/>
   </g>
   <g id="patch_23">
    <path clip-path="url(#pf06801874f)" d="M 44.310156 154.844 
L 449.114389 154.844 
L 449.114389 151.148 
L 44.310156 151.148 
z
" style="fill:#d1a72a;"/>
   </g>
   <g id="patch_24">
    <path clip-path="url(#pf06801874f)" d="M 44.310156 140.06 
L 420.246664 140.06 
L 420.246664 136.364 
L 44.310156 136.364 
z
" style="fill:#d1a72a;"/>
   </g>
   <g id="patch_25">
    <path clip-path="url(#pf06801874f)" d="M 44.310156 125.276 
L 412.373648 125.276 
L 412.373648 121.58 
L 44.310156 121.58 
z
" style="fill:#d1a72a;"/>
   </g>
   <g id="patch_26">
    <path clip-path="url(#pf06801874f)" d="M 44.310156 110.492 
L 460.923913 110.492 
L 460.923913 106.796 
L 44.310156 106.796 
z
" style="fill:#d1a72a;"/>
   </g>
   <g id="patch_27">
    <path clip-path="url(#pf06801874f)" d="M 44.310156 95.708 
L 379.569416 95.708 
L 379.569416 92.012 
L 44.310156 92.012 
z
" style="fill:#d1a72a;"/>
   </g>
   <g id="patch_28">
    <path clip-path="url(#pf06801874f)" d="M 44.310156 80.924 
L 403.188463 80.924 
L 403.188463 77.228 
L 44.310156 77.228 
z
" style="fill:#d1a72a;"/>
   </g>
   <g id="patch_29">
    <path clip-path="url(#pf06801874f)" d="M 44.310156 66.14 
L 433.368357 66.14 
L 433.368357 62.444 
L 44.310156 62.444 
z
" style="fill:#d1a72a;"/>
   </g>
   <g id="patch_30">
    <path clip-path="url(#pf06801874f)" d="M 44.310156 51.356 
L 454.363066 51.356 
L 454.363066 47.66 
L 44.310156 47.66 
z
" style="fill:#d1a72a;"/>
   </g>
   <g id="patch_31">
    <path clip-path="url(#pf06801874f)" d="M 44.310156 36.572 
L 455.675236 36.572 
L 455.675236 32.876 
L 44.310156 32.876 
z
" style="fill:#d1a72a;"/>
   </g>
   <g id="patch_32">
    <path clip-path="url(#pf06801874f)" d="M 44.310156 21.788 
L 569.833966 21.788 
L 569.833966 18.092 
L 44.310156 18.092 
z
" style="fill:#d1a72a;"/>
   </g>
   <g id="patch_33">
    <path clip-path="url(#pf06801874f)" d="M 44.310156 446.828 
L 542.429814 446.828 
L 542.429814 443.132 
L 44.310156 443.132 
z
" style="fill:#eb5852;"/>
   </g>
   <g id="patch_34">
    <path clip-path="url(#pf06801874f)" d="M 44.310156 432.044 
L 562.21329 432.044 
L 562.21329 428.348 
L 44.310156 428.348 
z
" style="fill:#eb5852;"/>
   </g>
   <g id="patch_35">
    <path clip-path="url(#pf06801874f)" d="M 44.310156 417.26 
L 565.039501 417.26 
L 565.039501 413.564 
L 44.310156 413.564 
z
" style="fill:#eb5852;"/>
   </g>
   <g id="patch_36">
    <path clip-path="url(#pf06801874f)" d="M 44.310156 402.476 
L 568.572265 402.476 
L 568.572265 398.78 
L 44.310156 398.78 
z
" style="fill:#eb5852;"/>
   </g>
   <g id="patch_37">
    <path clip-path="url(#pf06801874f)" d="M 44.310156 387.692 
L 580.583661 387.692 
L 580.583661 383.996 
L 44.310156 383.996 
z
" style="fill:#eb5852;"/>
   </g>
   <g id="patch_38">
    <path clip-path="url(#pf06801874f)" d="M 44.310156 372.908 
L 583.409871 372.908 
L 583.409871 369.212 
L 44.310156 369.212 
z
" style="fill:#eb5852;"/>
   </g>
   <g id="patch_39">
    <path clip-path="url(#pf06801874f)" d="M 44.310156 358.124 
L 612.378532 358.124 
L 612.378532 354.428 
L 44.310156 354.428 
z
" style="fill:#eb5852;"/>
   </g>
   <g id="patch_40">
    <path clip-path="url(#pf06801874f)" d="M 44.310156 343.34 
L 623.683376 343.34 
L 623.683376 339.644 
L 44.310156 339.644 
z
" style="fill:#eb5852;"/>
   </g>
   <g id="patch_41">
    <path clip-path="url(#pf06801874f)" d="M 44.310156 328.556 
L 639.227535 328.556 
L 639.227535 324.86 
L 44.310156 324.86 
z
" style="fill:#eb5852;"/>
   </g>
   <g id="patch_42">
    <path clip-path="url(#pf06801874f)" d="M 44.310156 313.772 
L 640.640641 313.772 
L 640.640641 310.076 
L 44.310156 310.076 
z
" style="fill:#eb5852;"/>
   </g>
   <g id="patch_43">
    <path clip-path="url(#pf06801874f)" d="M 44.310156 298.988 
L 644.879957 298.988 
L 644.879957 295.292 
L 44.310156 295.292 
z
" style="fill:#eb5852;"/>
   </g>
   <g id="patch_44">
    <path clip-path="url(#pf06801874f)" d="M 44.310156 284.204 
L 647.706168 284.204 
L 647.706168 280.508 
L 44.310156 280.508 
z
" style="fill:#eb5852;"/>
   </g>
   <g id="patch_45">
    <path clip-path="url(#pf06801874f)" d="M 44.310156 269.42 
L 650.532378 269.42 
L 650.532378 265.724 
L 44.310156 265.724 
z
" style="fill:#eb5852;"/>
   </g>
   <g id="patch_46">
    <path clip-path="url(#pf06801874f)" d="M 44.310156 254.636 
L 651.238931 254.636 
L 651.238931 250.94 
L 44.310156 250.94 
z
" style="fill:#eb5852;"/>
   </g>
   <g id="patch_47">
    <path clip-path="url(#pf06801874f)" d="M 44.310156 239.852 
L 656.1848 239.852 
L 656.1848 236.156 
L 44.310156 236.156 
z
" style="fill:#eb5852;"/>
   </g>
   <g id="patch_48">
    <path clip-path="url(#pf06801874f)" d="M 44.310156 225.068 
L 658.304458 225.068 
L 658.304458 221.372 
L 44.310156 221.372 
z
" style="fill:#eb5852;"/>
   </g>
   <g id="patch_49">
    <path clip-path="url(#pf06801874f)" d="M 44.310156 210.284 
L 659.011011 210.284 
L 659.011011 206.588 
L 44.310156 206.588 
z
" style="fill:#eb5852;"/>
   </g>
   <g id="patch_50">
    <path clip-path="url(#pf06801874f)" d="M 44.310156 195.5 
L 662.543774 195.5 
L 662.543774 191.804 
L 44.310156 191.804 
z
" style="fill:#eb5852;"/>
   </g>
   <g id="patch_51">
    <path clip-path="url(#pf06801874f)" d="M 44.310156 180.716 
L 664.663433 180.716 
L 664.663433 177.02 
L 44.310156 177.02 
z
" style="fill:#eb5852;"/>
   </g>
   <g id="patch_52">
    <path clip-path="url(#pf06801874f)" d="M 44.310156 165.932 
L 664.663433 165.932 
L 664.663433 162.236 
L 44.310156 162.236 
z
" style="fill:#eb5852;"/>
   </g>
   <g id="patch_53">
    <path clip-path="url(#pf06801874f)" d="M 44.310156 151.148 
L 675.261723 151.148 
L 675.261723 147.452 
L 44.310156 147.452 
z
" style="fill:#eb5852;"/>
   </g>
   <g id="patch_54">
    <path clip-path="url(#pf06801874f)" d="M 44.310156 136.364 
L 675.261723 136.364 
L 675.261723 132.668 
L 44.310156 132.668 
z
" style="fill:#eb5852;"/>
   </g>
   <g id="patch_55">
    <path clip-path="url(#pf06801874f)" d="M 44.310156 121.58 
L 679.501039 121.58 
L 679.501039 117.884 
L 44.310156 117.884 
z
" style="fill:#eb5852;"/>
   </g>
   <g id="patch_56">
    <path clip-path="url(#pf06801874f)" d="M 44.310156 106.796 
L 684.446908 106.796 
L 684.446908 103.1 
L 44.310156 103.1 
z
" style="fill:#eb5852;"/>
   </g>
   <g id="patch_57">
    <path clip-path="url(#pf06801874f)" d="M 44.310156 92.012 
L 690.805883 92.012 
L 690.805883 88.316 
L 44.310156 88.316 
z
" style="fill:#eb5852;"/>
   </g>
   <g id="patch_58">
    <path clip-path="url(#pf06801874f)" d="M 44.310156 77.228 
L 691.512435 77.228 
L 691.512435 73.532 
L 44.310156 73.532 
z
" style="fill:#eb5852;"/>
   </g>
   <g id="patch_59">
    <path clip-path="url(#pf06801874f)" d="M 44.310156 62.444 
L 699.284515 62.444 
L 699.284515 58.748 
L 44.310156 58.748 
z
" style="fill:#eb5852;"/>
   </g>
   <g id="patch_60">
    <path clip-path="url(#pf06801874f)" d="M 44.310156 47.66 
L 715.535227 47.66 
L 715.535227 43.964 
L 44.310156 43.964 
z
" style="fill:#eb5852;"/>
   </g>
   <g id="patch_61">
    <path clip-path="url(#pf06801874f)" d="M 44.310156 32.876 
L 736.731809 32.876 
L 736.731809 29.18 
L 44.310156 29.18 
z
" style="fill:#eb5852;"/>
   </g>
   <g id="patch_62">
    <path clip-path="url(#pf06801874f)" d="M 44.310156 18.092 
L 788.310156 18.092 
L 788.310156 14.396 
L 44.310156 14.396 
z
" style="fill:#eb5852;"/>
   </g>
   <g id="patch_63">
    <path d="M 44.310156 454.22 
L 44.310156 10.7 
" style="fill:none;stroke:#c0c0c0;stroke-linecap:square;stroke-linejoin:miter;stroke-width:0.8;"/>
   </g>
   <g id="legend_1"/>
  </g>
 </g>
 <defs>
  <clipPath id="pf06801874f">
   <rect height="443.52" width="781.2" x="44.310156" y="10.7"/>
  </clipPath>
 </defs>
</svg>
